<?xml version="1.0" encoding="UTF-8"?> <svg xmlns="http://www.w3.org/2000/svg" id="Laag_1" viewBox="0 0 150 100"><defs><style>.cls-1{fill:#dfd0f3;}</style></defs><path class="cls-1" d="M26.3,67.24c-.78,0-1.48-.16-2.09-.49-.61-.33-1.09-.78-1.44-1.36-.35-.57-.53-1.23-.53-1.95v-5.97h2.09v5.85c0,.39.09.74.26,1.04s.41.56.71.74c.3.19.63.28,1,.28s.72-.09,1.03-.28c.31-.18.55-.43.73-.74.18-.31.27-.66.27-1.04v-5.85h2.02v5.97c0,.73-.18,1.38-.53,1.95-.35.58-.83,1.03-1.44,1.36-.61.33-1.31.49-2.08.49Z"></path><path class="cls-1" d="M33.81,67.16v-9.67h4.1c.57,0,1.09.13,1.55.41s.83.64,1.11,1.11c.27.47.41,1,.41,1.59s-.14,1.14-.41,1.62c-.27.48-.64.86-1.11,1.14s-.98.42-1.55.42h-2.03v3.39h-2.07ZM35.86,61.91h1.82c.22,0,.42-.06.59-.17.17-.12.32-.27.42-.46.11-.19.16-.41.16-.66s-.05-.47-.16-.66c-.11-.19-.25-.34-.42-.44s-.37-.16-.59-.16h-1.82v2.56Z"></path><path class="cls-1" d="M47.01,67.3c-.6,0-1.15-.07-1.64-.22-.49-.15-.93-.36-1.31-.65-.38-.29-.73-.63-1.03-1.04l1.3-1.48c.45.63.9,1.05,1.35,1.28.45.23.93.34,1.46.34.29,0,.54-.04.77-.12.23-.08.4-.19.53-.34.13-.15.19-.32.19-.53,0-.15-.03-.28-.1-.41-.06-.12-.16-.24-.28-.33s-.26-.18-.43-.26c-.17-.08-.35-.15-.55-.21-.2-.06-.42-.11-.66-.14-.52-.12-.97-.26-1.35-.44-.39-.17-.71-.38-.97-.64s-.45-.54-.57-.86-.19-.69-.19-1.09.09-.8.28-1.15c.18-.35.44-.66.77-.92.33-.26.7-.46,1.13-.59.43-.14.88-.21,1.36-.21.59,0,1.11.07,1.55.2.44.13.83.33,1.15.57.33.25.6.55.82.91l-1.31,1.27c-.19-.26-.4-.47-.63-.65-.23-.17-.47-.31-.73-.39-.26-.09-.53-.13-.81-.13-.3,0-.57.04-.79.12-.22.08-.39.19-.52.34s-.19.33-.19.54c0,.17.04.31.12.44s.2.24.36.34.35.18.57.26c.22.07.47.14.73.19.51.1.96.24,1.37.4s.75.37,1.04.6c.29.23.51.51.67.83s.24.67.24,1.07c0,.66-.16,1.21-.47,1.67s-.75.81-1.3,1.06-1.2.37-1.93.37Z"></path><path class="cls-1" d="M62.05,67.3c-.6,0-1.15-.07-1.64-.22-.49-.15-.93-.36-1.31-.65-.38-.29-.73-.63-1.03-1.04l1.3-1.48c.45.63.9,1.05,1.35,1.28.45.23.93.34,1.46.34.29,0,.54-.04.77-.12.23-.08.4-.19.53-.34.13-.15.19-.32.19-.53,0-.15-.03-.28-.1-.41-.06-.12-.16-.24-.28-.33s-.26-.18-.43-.26c-.17-.08-.35-.15-.55-.21-.2-.06-.42-.11-.66-.14-.52-.12-.97-.26-1.35-.44-.39-.17-.71-.38-.97-.64s-.45-.54-.57-.86-.19-.69-.19-1.09.09-.8.28-1.15c.18-.35.44-.66.77-.92.33-.26.7-.46,1.13-.59.43-.14.88-.21,1.36-.21.59,0,1.11.07,1.55.2.44.13.83.33,1.15.57.33.25.6.55.82.91l-1.31,1.27c-.19-.26-.4-.47-.63-.65-.23-.17-.47-.31-.73-.39-.26-.09-.53-.13-.81-.13-.3,0-.57.04-.79.12-.22.08-.39.19-.52.34s-.19.33-.19.54c0,.17.04.31.12.44s.2.24.36.34.35.18.57.26c.22.07.47.14.73.19.51.1.96.24,1.37.4s.75.37,1.04.6c.29.23.51.51.67.83s.24.67.24,1.07c0,.66-.16,1.21-.47,1.67s-.75.81-1.3,1.06-1.2.37-1.93.37Z"></path><path class="cls-1" d="M70.99,67.16v-4.82l.1.68-3.91-5.53h2.39l2.98,4.28-.94-.04,2.69-4.24h2.31l-3.74,5.68.21-.94v4.93h-2.09Z"></path><path class="cls-1" d="M81.67,67.3c-.6,0-1.15-.07-1.64-.22-.49-.15-.93-.36-1.31-.65-.38-.29-.73-.63-1.03-1.04l1.3-1.48c.45.63.9,1.05,1.35,1.28.45.23.93.34,1.46.34.29,0,.54-.04.77-.12.23-.08.4-.19.53-.34.13-.15.19-.32.19-.53,0-.15-.03-.28-.1-.41-.06-.12-.16-.24-.28-.33s-.26-.18-.43-.26c-.17-.08-.35-.15-.55-.21-.2-.06-.42-.11-.66-.14-.52-.12-.97-.26-1.35-.44-.39-.17-.71-.38-.97-.64s-.45-.54-.57-.86-.19-.69-.19-1.09.09-.8.28-1.15c.18-.35.44-.66.77-.92.33-.26.7-.46,1.13-.59.43-.14.88-.21,1.36-.21.59,0,1.11.07,1.55.2.44.13.83.33,1.15.57.33.25.6.55.82.91l-1.31,1.27c-.19-.26-.4-.47-.63-.65-.23-.17-.47-.31-.73-.39-.26-.09-.53-.13-.81-.13-.3,0-.57.04-.79.12-.22.08-.39.19-.52.34s-.19.33-.19.54c0,.17.04.31.12.44s.2.24.36.34.35.18.57.26c.22.07.47.14.73.19.51.1.96.24,1.37.4s.75.37,1.04.6c.29.23.51.51.67.83s.24.67.24,1.07c0,.66-.16,1.21-.47,1.67s-.75.81-1.3,1.06-1.2.37-1.93.37Z"></path><path class="cls-1" d="M90.31,67.16v-7.81h-2.82v-1.86h7.79v1.86h-2.9v7.81h-2.07Z"></path><path class="cls-1" d="M98.03,67.16v-9.67h6.54v1.82h-4.52v6.02h4.62v1.82h-6.63ZM99,63.11v-1.77h4.91v1.77h-4.91Z"></path><path class="cls-1" d="M107.84,67.16v-9.67h1.89l3.52,5.73h-1.24s3.57-5.73,3.57-5.73h1.81v9.67h-2.03v-3.32c0-.83.02-1.58.06-2.24s.11-1.32.21-1.98l.25.65-2.83,4.39h-.91l-2.78-4.37.23-.68c.1.62.17,1.25.21,1.9.04.65.06,1.42.06,2.32v3.32h-2.03Z"></path><path class="cls-1" d="M124.08,67.3c-.6,0-1.15-.07-1.64-.22-.49-.15-.93-.36-1.31-.65-.38-.29-.73-.63-1.03-1.04l1.3-1.48c.45.63.9,1.05,1.35,1.28.45.23.93.34,1.46.34.29,0,.54-.04.77-.12.23-.08.4-.19.53-.34.13-.15.19-.32.19-.53,0-.15-.03-.28-.1-.41-.06-.12-.16-.24-.28-.33s-.26-.18-.43-.26c-.17-.08-.35-.15-.55-.21-.2-.06-.42-.11-.66-.14-.52-.12-.97-.26-1.35-.44-.39-.17-.71-.38-.97-.64s-.45-.54-.57-.86-.19-.69-.19-1.09.09-.8.28-1.15c.18-.35.44-.66.77-.92.33-.26.7-.46,1.13-.59.43-.14.88-.21,1.36-.21.59,0,1.11.07,1.55.2.44.13.83.33,1.15.57.33.25.6.55.82.91l-1.31,1.27c-.19-.26-.4-.47-.63-.65-.23-.17-.47-.31-.73-.39-.26-.09-.53-.13-.81-.13-.3,0-.57.04-.79.12-.22.08-.39.19-.52.34s-.19.33-.19.54c0,.17.04.31.12.44s.2.24.36.34.35.18.57.26c.22.07.47.14.73.19.51.1.96.24,1.37.4s.75.37,1.04.6c.29.23.51.51.67.83s.24.67.24,1.07c0,.66-.16,1.21-.47,1.67s-.75.81-1.3,1.06-1.2.37-1.93.37Z"></path><rect class="cls-1" x="22.24" y="74.48" width="90.72" height="7.32"></rect><path class="cls-1" d="M39.27,50.17v-14.91c0-2.61-1.82-4.43-4.43-4.43-3.12,0-5.3,2.32-5.3,5.65v13.69h-7.32v-24.95h5.94l.63,2.78c1.93-2.15,4.76-3.36,7.95-3.36,5.8,0,9.85,3.97,9.85,9.65v15.89h-7.32Z"></path><path class="cls-1" d="M65.06,50.76c-7.98,0-13.55-5.37-13.55-13.06s5.25-13.06,12.77-13.06c7.09,0,12.04,5.19,12.04,12.62,0,.7-.05,1.39-.1,2.04l-.04.5h-17.26c.64,3.17,3.35,5.25,6.92,5.25,2.02,0,4.31-.67,6.61-1.93l.51-.28,2.35,5.25-.47.23c-3.2,1.57-6.67,2.44-9.79,2.44ZM69.19,34.96c-.37-2.82-2.25-4.62-4.91-4.62s-4.81,1.79-5.36,4.62h10.27Z"></path><polygon class="cls-1" points="97.6 50.17 92.19 42.26 86.82 50.17 78.42 50.17 87.53 37.41 78.81 25.22 87.06 25.22 92.19 32.56 97.31 25.22 105.56 25.22 96.89 37.41 105.95 50.17 97.6 50.17"></polygon><path class="cls-1" d="M121.46,50.76c-5.08,0-8.63-3.39-8.63-8.24v-11.49h-4.43v-5.81h4.43v-7.01h7.32v7.01h6.62v5.81h-6.62v10.86c0,1.69,1.13,2.82,2.82,2.82.88,0,1.86-.14,2.93-.42l.57-.15,1.02,5.75-.49.12c-1.93.5-3.8.75-5.54.75Z"></path><rect class="cls-1" x="120.1" y="74.48" width="7.32" height="7.32"></rect></svg> 