<?xml version="1.0" encoding="UTF-8"?> <svg xmlns="http://www.w3.org/2000/svg" id="Laag_1" viewBox="0 0 150 100"><defs><style>.cls-1{fill:#dfd0f3;}</style></defs><polygon class="cls-1" points="6.15 61.71 5.57 63.51 19.65 63.51 18.88 65.89 4.95 65.89 4.8 65.9 2.89 71.88 7.58 71.88 8.92 67.69 23 67.69 24.92 61.71 6.15 61.71"></polygon><polygon class="cls-1" points="24.56 71.88 29.26 71.88 31.18 65.89 36.39 65.89 36.96 64.09 27.06 64.09 24.56 71.88"></polygon><polygon class="cls-1" points="39.18 65.89 48.1 65.89 46.76 70.09 42.53 70.09 43.49 67.09 38.8 67.09 37.26 71.88 50.88 71.88 53.38 64.09 39.76 64.09 39.18 65.89"></polygon><polygon class="cls-1" points="82.51 65.89 91.43 65.89 90.09 70.08 85.86 70.08 86.82 67.09 82.12 67.09 80.59 71.88 94.21 71.88 96.7 64.09 83.09 64.09 82.51 65.89"></polygon><polygon class="cls-1" points="97.39 71.88 102.09 71.88 104.01 65.89 108.23 65.89 106.31 71.88 111.01 71.88 113.51 64.09 99.89 64.09 97.39 71.88"></polygon><polygon class="cls-1" points="75.97 61.71 74.63 65.89 64.96 65.89 64.38 67.69 74.05 67.69 72.71 71.88 77.4 71.88 80.66 61.71 75.97 61.71"></polygon><polygon class="cls-1" points="61.91 71.88 57.21 71.88 60.47 61.71 65.17 61.71 61.91 71.88"></polygon><polygon class="cls-1" points="126.38 61.71 123.69 70.09 119.47 70.09 120.81 65.89 123.9 65.89 124.47 64.09 116.69 64.09 114.2 71.88 127.81 71.88 131.07 61.71 126.38 61.71"></polygon><polygon class="cls-1" points="133.5 64.09 132.92 65.89 141.84 65.89 140.5 70.09 136.27 70.09 136.66 68.89 139.74 68.89 140.32 67.09 132.54 67.09 131 71.88 144.62 71.88 147.11 64.09 133.5 64.09"></polygon><polygon class="cls-1" points="100.68 35.24 29.54 35.24 33.79 38.8 80.19 38.8 75.95 42.37 46.72 42.37 42.16 56.61 55.26 56.61 58.68 45.93 87.94 45.93 100.68 35.24"></polygon><polygon class="cls-1" points="21.06 28.12 25.3 31.68 113.03 31.68 91.81 49.49 64.37 49.49 62.09 56.61 75.19 56.61 76.33 53.05 103.8 53.05 133.51 28.12 21.06 28.12"></polygon></svg> 