<?xml version="1.0" encoding="UTF-8"?> <svg xmlns="http://www.w3.org/2000/svg" id="Laag_1" viewBox="0 0 150 100"><defs><style>.cls-1{fill:#dfd0f3;}</style></defs><path class="cls-1" d="M72.82,8.45c-.74,1.39-10.79,20.19-15.12,28.26-.15.28-.14.48,0,.75,4.24,7.91,12.83,23.96,12.92,24.11.09-.15,8.68-16.2,12.92-24.11.15-.27.16-.48,0-.75-2.43-4.51-4.84-9.03-7.26-13.55-.16-.29-.17-.5,0-.8.67-1.2,1.31-2.42,1.98-3.68.1.16,6.52,12.16,9.68,18.04.13.25.14.43,0,.69-4.99,9.31-9.97,18.63-14.95,27.95-.13.25-.27.36-.57.36-1.23-.02-2.47-.01-3.7,0-.23,0-.35-.07-.46-.27-5-9.37-10.01-18.73-15.02-28.09-.1-.19-.11-.34,0-.54,5.01-9.36,10.02-18.72,15.03-28.08.06-.12.21-.27.32-.27,1.38-.02,2.75-.01,4.2-.01Z"></path><path class="cls-1" d="M78.51,14.18c-2.29,4.27-8.62,16.08-12.06,22.51-.15.27-.16.48,0,.75,2.43,4.51,4.84,9.03,7.26,13.55.16.29.16.5,0,.8-.67,1.2-1.31,2.42-1.98,3.68-.09-.15-6.52-12.15-9.68-18.05-.13-.25-.14-.43,0-.69,4.99-9.31,9.97-18.63,14.95-27.95.13-.25.27-.36.57-.36,1.23.02,2.47.01,3.7,0,.23,0,.35.07.46.27,5,9.37,10.01,18.73,15.02,28.09.1.2.11.34,0,.54-5.01,9.36-10.02,18.72-15.03,28.08-.06.12-.21.27-.32.27-1.38.02-2.75.01-4.19.01.09-.18,10.15-18.99,15.11-28.26.15-.28.14-.48,0-.75-4.24-7.91-12.83-23.96-12.92-24.11-.02.03-.33.61-.86,1.6"></path><path class="cls-1" d="M43.1,82.4h-2.08v-9.06c0-.11-.01-.19-.04-.23-.03-.04-.09-.08-.2-.12l-.56-.22.17-.91h5.27c1.36,0,2.33.26,2.93.78.6.52.89,1.35.89,2.5,0,.91-.19,1.61-.56,2.1-.37.49-.95.81-1.73.96l2.57,4.2h-2.3l-2.33-3.96h-2.02v3.96ZM43.1,76.87h2.32c.72,0,1.24-.13,1.54-.39.31-.26.46-.71.46-1.33s-.15-1.06-.46-1.32c-.31-.26-.82-.39-1.54-.39h-2.32v3.43Z"></path><path class="cls-1" d="M59.15,71.87v1.6h-5.52v2.81h4.39v1.54h-4.39v2.99h5.64v1.6h-7.73v-9.06c0-.11-.01-.19-.04-.23-.03-.04-.09-.08-.2-.12l-.56-.22.17-.91h8.23Z"></path><path class="cls-1" d="M61,73.34c0-.11-.01-.19-.04-.23-.03-.04-.09-.08-.2-.12l-.56-.22.17-.91h2.35c.16,0,.26.02.31.05.05.04.13.14.26.31l5.41,7.32v-7.68h1.93v10.53h-2.02l-5.67-7.68v7.68h-1.93v-9.06Z"></path><path class="cls-1" d="M78.06,71.87c.21.38.43.83.67,1.36.24.53.49,1.1.74,1.72.26.62.51,1.26.76,1.93.25.67.49,1.33.71,1.99.22.66.43,1.29.62,1.9.19.61.34,1.15.47,1.65h-2.1c-.12-.43-.24-.85-.36-1.25-.13-.41-.25-.81-.36-1.21h-4.64c-.13.4-.25.8-.37,1.21-.12.41-.24.83-.35,1.25h-2.1c.13-.49.28-1.04.47-1.65.19-.61.39-1.24.62-1.9.22-.66.46-1.32.71-1.99.25-.67.5-1.31.76-1.93.26-.62.5-1.19.74-1.72.24-.53.46-.98.67-1.36h2.32ZM76.9,73.72c-.67,1.5-1.27,3.07-1.82,4.69h3.64c-.56-1.62-1.17-3.18-1.82-4.69Z"></path><path class="cls-1" d="M83.09,73.34c0-.11-.01-.19-.04-.23-.03-.04-.09-.08-.2-.12l-.56-.22.17-.91h2.57c.09,0,.14.05.14.16v6.1c0,1,.21,1.72.64,2.16.43.44,1.12.66,2.08.66s1.67-.22,2.09-.66c.42-.44.63-1.16.63-2.16v-6.25h2.08v6.41c0,.76-.09,1.42-.27,1.96-.18.54-.47.99-.85,1.34-.39.35-.89.61-1.5.77s-1.34.24-2.19.24-1.57-.08-2.19-.24-1.11-.42-1.5-.77c-.39-.35-.67-.8-.85-1.34-.18-.54-.27-1.2-.27-1.96v-4.94Z"></path><path class="cls-1" d="M95.13,73.34c0-.11-.01-.19-.04-.23-.03-.04-.09-.08-.2-.12l-.56-.22.17-.91h2.57c.09,0,.14.05.14.16v8.78h4.81v1.6h-6.9v-9.06Z"></path><path class="cls-1" d="M104.28,73.47h-3.42v-1.6h8.92v1.6h-3.42v8.93h-2.08v-8.93Z"></path></svg> 