<?xml version="1.0" encoding="UTF-8"?> <svg xmlns="http://www.w3.org/2000/svg" id="Laag_1" viewBox="0 0 150 100"><defs><style>.cls-1{fill:#dfd0f3;}</style></defs><g id="Laag_1-2"><path class="cls-1" d="M54.42,38.15c-.78,0-1.42.27-1.94.8-.52.53-.78,1.17-.78,1.92s.26,1.42.78,1.94c.52.52,1.17.78,1.94.78s1.42-.26,1.92-.78c.51-.52.76-1.17.76-1.94s-.25-1.39-.76-1.92c-.51-.53-1.15-.8-1.92-.8Z"></path><path class="cls-1" d="M71.56,56.51c0,1.09-.28,1.94-.83,2.54-.56.6-1.33.91-2.33.91-.65,0-1.22-.13-1.71-.4-.49-.27-.85-.66-1.09-1.18s-.36-1.15-.36-1.87v-10.06h-4.8v10.17c0,1.53.34,2.87,1.02,4.03s1.62,2.06,2.83,2.71c1.21.64,2.58.96,4.1.96s2.89-.32,4.09-.96c1.2-.64,2.14-1.54,2.82-2.71.68-1.16,1.02-2.51,1.02-4.03v-10.17h-4.76v10.06h0Z"></path><path class="cls-1" d="M93.41,47.05c-1.01-.64-2.16-.96-3.47-.96s-2.52.29-3.58.87c-.57.31-1.07.7-1.51,1.15v-1.65h-4.76v17.54h4.76v-10.06c0-.68.15-1.29.45-1.83.3-.54.72-.96,1.25-1.25s1.14-.44,1.82-.44c1.02,0,1.85.33,2.51.98s.98,1.5.98,2.54v10.06h4.8v-11.15c0-1.16-.29-2.26-.87-3.29s-1.37-1.86-2.38-2.51h0Z"></path><polygon class="cls-1" points="107.79 39.56 103.03 39.56 103 46.45 98.83 46.45 98.83 50.62 102.99 50.62 102.94 63.99 107.7 63.99 107.75 50.62 111.8 50.62 111.8 46.45 107.76 46.45 107.79 39.56"></polygon><path class="cls-1" d="M126.69,48.1c-.49-.5-1.06-.92-1.71-1.26-.99-.51-2.11-.76-3.34-.76-1.62,0-3.07.4-4.34,1.2-1.27.8-2.27,1.89-3,3.27-.73,1.38-1.09,2.94-1.09,4.69s.36,3.27,1.09,4.65,1.73,2.47,3,3.27c1.27.8,2.71,1.2,4.3,1.2,1.26,0,2.39-.26,3.4-.76.65-.33,1.21-.74,1.69-1.24v1.64h4.8v-17.54h-4.8v1.66h0ZM125.74,58.62c-.82.9-1.9,1.34-3.23,1.34-.85,0-1.61-.21-2.29-.62-.68-.41-1.21-.97-1.58-1.67s-.56-1.53-.56-2.47.19-1.73.56-2.43c.37-.7.9-1.26,1.56-1.67.67-.41,1.44-.62,2.31-.62s1.67.2,2.33.6c.65.4,1.17.96,1.56,1.69s.58,1.55.58,2.47c0,1.36-.41,2.48-1.24,3.38Z"></path><path class="cls-1" d="M146.38,54.55c-.67-.41-1.37-.73-2.11-.96s-1.45-.44-2.12-.64-1.22-.41-1.63-.64c-.41-.23-.62-.56-.62-1,0-.39.18-.69.54-.91s.91-.33,1.63-.33,1.46.15,2.12.45,1.26.77,1.8,1.4l2.87-2.91c-.78-1.02-1.75-1.77-2.92-2.27-1.17-.5-2.49-.74-3.94-.74s-2.58.22-3.6.67-1.8,1.09-2.36,1.92c-.56.83-.83,1.81-.83,2.92s.22,1.94.65,2.62.99,1.21,1.65,1.58c.67.37,1.37.67,2.12.89s1.46.42,2.12.62c.67.19,1.22.42,1.65.67.44.25.65.62.65,1.11,0,.41-.21.73-.62.96-.41.23-1.01.35-1.78.35-.94,0-1.82-.17-2.62-.51s-1.49-.86-2.07-1.56l-2.87,2.87c.58.68,1.27,1.26,2.07,1.76s1.68.87,2.63,1.12,1.94.38,2.96.38c2.11,0,3.78-.5,5.01-1.51s1.85-2.37,1.85-4.09c0-1.07-.21-1.94-.64-2.62-.42-.68-.97-1.22-1.63-1.63h0Z"></path><path class="cls-1" d="M37.54,38.15c-.78,0-1.42.27-1.94.8-.52.53-.78,1.17-.78,1.92s.26,1.42.78,1.94c.52.52,1.17.78,1.94.78s1.42-.26,1.92-.78c.51-.52.76-1.17.76-1.94s-.25-1.39-.76-1.92c-.51-.53-1.15-.8-1.92-.8Z"></path><path class="cls-1" d="M17.52,43.6c.78,0,1.42-.26,1.92-.78.51-.52.76-1.17.76-1.94s-.25-1.39-.76-1.92c-.51-.53-1.15-.8-1.92-.8s-1.42.27-1.94.8c-.52.53-.78,1.17-.78,1.92s.26,1.42.78,1.94c.52.52,1.17.78,1.94.78h0Z"></path><path class="cls-1" d="M27.53,43.6c.78,0,1.42-.26,1.92-.78.51-.52.76-1.17.76-1.94s-.25-1.39-.76-1.92c-.51-.53-1.15-.8-1.92-.8s-1.42.27-1.94.8c-.52.53-.78,1.17-.78,1.92s.26,1.42.78,1.94c.52.52,1.17.78,1.94.78Z"></path><path class="cls-1" d="M35.57,55.54c0,4.28-3.49,7.77-7.77,7.77h-.14c-4.28,0-7.77-3.49-7.77-7.77v-4.96h5.76v4.96c0,1.11.9,2.01,2.01,2.01h.14c1.11,0,2.01-.9,2.01-2.01v-9.03h-14.28v9.46c0,6.52,5.64,12.02,12.32,12.02h.36c2.88,0,5.88-1.28,8.22-3.53,2.46-2.35,3.81-5.37,3.81-8.5v-9.46h-4.66v9.03h0Z"></path><path class="cls-1" d="M51.98,65.32c0,.7-.21,1.24-.64,1.6s-.93.54-1.51.54c-.46,0-.85-.08-1.16-.24-.31-.16-.62-.42-.91-.78l-3.01,3.01c.68.75,1.44,1.33,2.29,1.74.85.41,1.9.62,3.16.62s2.31-.27,3.3-.8c.99-.53,1.78-1.28,2.36-2.25s.87-2.14.87-3.52v-18.74h-4.76v18.82h0Z"></path></g></svg> 