<?xml version="1.0" encoding="UTF-8"?> <svg xmlns="http://www.w3.org/2000/svg" id="Laag_1" viewBox="0 0 150 100"><defs><style>.cls-1{isolation:isolate;}.cls-2{fill:#dfd0f3;}</style></defs><g class="cls-1"><g id="Layer_1"><rect class="cls-2" x="70.69" y="29.28" width="0" height="0" transform="translate(-5.81 27.7) rotate(-21.32)"></rect><path class="cls-2" d="M80.57,17.68h0ZM69.12,17.68l-5.05,15.42,5.72,17.47h.01l5.04-15.4-5.73-17.49Z"></path><polygon class="cls-2" points="64.08 33.1 58.36 50.57 69.8 50.57 64.08 33.1"></polygon><polygon class="cls-2" points="80.57 17.68 80.57 17.68 69.12 17.68 69.12 17.68 74.85 35.17 80.57 17.68 80.57 17.68"></polygon><polygon class="cls-2" points="85.62 33.08 79.89 50.57 91.34 50.57 85.62 33.08"></polygon><polygon class="cls-2" points="23.31 81.93 17.76 81.93 15.39 72.2 13.02 81.93 7.47 81.93 2.21 65.65 7.99 65.65 10.36 75.39 12.73 65.65 18.05 65.65 20.42 75.39 22.79 65.65 28.57 65.65 23.31 81.93"></polygon><path class="cls-2" d="M34.98,71.9h5.69c-.2-1.45-1.25-2.4-2.7-2.4s-2.66.95-2.99,2.4M37.97,65.26c4.87,0,8.25,3.39,8.25,8.29,0,.58-.03,1.16-.1,1.74h-11.14c.43,1.71,2.07,2.8,4.24,2.8,1.32,0,2.86-.46,4.5-1.32l1.71,3.88c-2.47,1.15-4.9,1.67-6.94,1.67-5.52,0-9.3-3.52-9.3-8.52s3.62-8.55,8.78-8.55"></path><path class="cls-2" d="M53.52,71.9h5.69c-.2-1.45-1.25-2.4-2.7-2.4s-2.66.95-2.99,2.4M56.52,65.26c4.87,0,8.25,3.39,8.25,8.29,0,.58-.03,1.16-.1,1.74h-11.14c.43,1.71,2.07,2.8,4.24,2.8,1.32,0,2.86-.46,4.5-1.32l1.71,3.88c-2.47,1.15-4.9,1.67-6.94,1.67-5.52,0-9.3-3.52-9.3-8.52s3.62-8.55,8.78-8.55"></path><path class="cls-2" d="M67.1,65.65h4.6l.72,1.64c1.45-1.35,3.16-2.04,5.06-2.04,2.17,0,4.01.92,5.03,2.43,1.74-1.58,3.65-2.43,5.79-2.43,3.68,0,6.25,2.53,6.25,6.12v10.55h-5.79v-9.6c0-1.38-.92-2.33-2.3-2.33-1.61,0-2.73,1.22-2.73,2.96v8.98h-5.79v-9.6c0-1.38-.95-2.33-2.3-2.33-1.64,0-2.76,1.22-2.76,2.96v8.98h-5.79v-16.27Z"></path><path class="cls-2" d="M104.45,78.34c1.64,0,2.83-1.15,2.83-2.73v-.59c-.68-.14-1.37-.22-2.07-.23-1.71,0-2.86.72-2.86,1.87,0,.95.89,1.67,2.1,1.67M104.48,71.54c.94.01,1.87.1,2.79.26v-.13c0-1.25-1.18-2.17-2.83-2.17s-3.42.43-5.26,1.18l-1.45-3.98c2.63-.99,5.1-1.45,7.43-1.45,4.47,0,7.4,2.63,7.4,6.54v5.36c0,.49.33.82.82.82.25,0,.51-.03.76-.06l.36,4.14c-.9.18-1.81.26-2.73.26-1.61,0-2.89-.69-3.62-1.87-1.51,1.22-3.49,1.87-5.26,1.87-3.52,0-5.98-2.17-5.98-5.29,0-3.49,2.83-5.49,7.56-5.49"></path><path class="cls-2" d="M120.85,71.9h5.69c-.2-1.45-1.25-2.4-2.7-2.4s-2.66.95-2.99,2.4M123.84,65.26c4.87,0,8.25,3.39,8.25,8.29,0,.58-.03,1.16-.1,1.74h-11.15c.43,1.71,2.07,2.8,4.24,2.8,1.32,0,2.86-.46,4.5-1.32l1.71,3.88c-2.47,1.15-4.9,1.67-6.94,1.67-5.52,0-9.3-3.52-9.3-8.52s3.62-8.55,8.78-8.55"></path><path class="cls-2" d="M140.54,65.26c2.04,0,4.21.43,6.41,1.18l-1.22,4.11c-1.64-.62-3.28-1.05-4.73-1.05-1.02,0-1.61.39-1.61,1.02,0,1.94,8.09,0,8.09,6.41,0,3.12-2.83,5.39-6.94,5.39-2.17,0-4.5-.43-6.94-1.31l1.22-4.11c1.91.79,3.65,1.18,5.23,1.18,1.12,0,1.74-.46,1.74-1.15,0-2.04-8.05-.13-8.05-6.41,0-2.99,2.79-5.26,6.81-5.26"></path><polygon class="cls-2" points="102.11 17.68 90.66 17.68 85.62 33.08 85.62 33.08 91.34 50.57 91.34 50.57 102.11 17.68"></polygon><polygon class="cls-2" points="58.36 50.57 64.08 33.1 64.08 33.1 59.03 17.68 47.58 17.68 58.34 50.57 58.36 50.57"></polygon><polygon class="cls-2" points="79.89 50.57 85.62 33.08 80.57 17.68 74.85 35.17 74.85 35.17 74.85 35.17 79.89 50.57 79.89 50.57"></polygon></g></g></svg> 