<?xml version="1.0" encoding="UTF-8"?> <svg xmlns="http://www.w3.org/2000/svg" version="1.1" viewBox="0 0 2000 2000"><defs><style> .cls-1 { fill: #6c4cdf; } .cls-2 { fill: #dfd0f3; } </style></defs><g><g id="Laag_1"><g><g><path class="cls-1" d="M1129.57,120.53c2.51,17.43,4.37,35.85,5.66,54.73l4.69.53c5.72-17.82,12.04-33.99,18.88-52.47l16.32-46.16,27.87,3.16-50.36,118.28-36.72-4.17-6.7-54.84c-1.84-16.3-3.4-32.84-4.14-49.54l-4.17-.47c-4.7,15.82-9.98,32.11-15.14,47.35l-18.3,52.01-35.94-4.08-22.57-126.56,28.91,3.28,6.86,48.79c2.82,19.32,5.33,36.75,6.9,55.4l4.69.53c5.46-17.85,11.4-35.38,17.78-52.06l17.16-46.6,31.77,3.61,6.54,49.29Z"></path><path class="cls-1" d="M1206.14,149.07c12.57-39.74,42.49-56.12,79.23-44.51,35.49,11.22,45.94,38.17,35.75,70.41-1.42,4.5-3.08,9.75-5.48,15.59l-84.73-26.79c-4.72,21.88,2.63,36.02,22.63,42.34,18.75,5.93,28.09-1.02,34.89-11.24l20.94,13.77c-12.22,19.51-31.55,29.34-63.04,19.38-35.99-11.38-52.6-39.72-40.19-78.96ZM1236.85,145.86l60.24,19.04c5.4-20.56-.28-33.9-19.02-39.83-18.25-5.77-32.07.58-41.21,20.79Z"></path><path class="cls-1" d="M1381.12,179.28l1.64.83c15.42-16,33.85-22.27,53.74-12.23,25.98,13.11,30.09,41.03,11.2,78.47s-44.38,50.13-69.19,37.61c-20.13-10.16-26.38-29.76-22.08-51.66l-1.64-.83-14.76,29.25-25.04-12.64,75.82-150.24,25.04,12.64-34.72,68.8ZM1422.89,233.84c12.05-23.87,9.41-39.59-9.08-48.92-17.32-8.74-34.46-2.12-44.14,17.07l-4.25,8.42c-9.33,18.49-4.47,36.79,12.38,45.3,18.49,9.33,33.17,1.76,45.1-21.87Z"></path><path class="cls-1" d="M1518.92,332.31l-1.48-1.08c-17.61,13.42-38.13,16.6-55.9,3.6-22.85-16.71-22.71-44.87,1.9-78.51,24.92-34.06,52.23-42.99,75.35-25.75,18.14,12.94,20.78,32.42,13.17,53.48l1.48,1.08,45.66-62.41,22.64,16.56-99.36,135.82-22.64-16.56,19.19-26.23ZM1532.85,313.27l5.57-7.62c12.54-17.14,10.95-35.83-4.49-47.13-16.5-12.07-32.12-7.59-48.07,14.2-15.63,21.37-15.6,37.31,1.33,49.69,15.23,11.14,33.28,7.78,45.66-9.14Z"></path><path class="cls-1" d="M1577.21,342.99c29.63-29.31,63.74-29.86,90.84-2.46,26.17,26.47,22.86,55.18-1.18,78.96-3.35,3.32-7.27,7.19-12.11,11.24l-62.49-63.18c-14.37,17.16-14.46,33.1.29,48.01,13.82,13.98,25.33,12.19,36.11,6.32l12.11,21.94c-19.9,11.57-41.58,11.26-64.81-12.22-26.54-26.84-28.03-59.66,1.23-88.6ZM1605.88,354.46l44.42,44.92c14.36-15.68,15.55-30.13,1.73-44.11-13.46-13.61-28.65-14.43-46.15-.81Z"></path><path class="cls-1" d="M1651.56,453.56l19.24,17.43c-9.74,11.99-12.25,24.55-.49,40.63,8.82,12.06,17.69,15.31,26.16,9.12,7.83-5.73,7.61-14.01-3.18-36.32-14.05-30.32-11.98-46.12,4.53-58.19,17.98-13.15,39-8.39,58.35,18.06,19.96,27.29,15.56,44.8.93,61.67l-19.45-17.27c10.26-11.73,10.58-21.05,1.92-32.9-8.51-11.64-17.29-14.31-24.69-8.9-6.98,5.11-8.75,12.9,1.63,34.2,16.01,33.43,12.56,49.59-3.09,61.04-18.41,13.46-39.23,9.86-60.12-18.71-23.52-32.16-18.14-52.33-1.73-69.86Z"></path><path class="cls-1" d="M1694.49,579.21l106.63-61.73,14.18,24.5-106.63,61.73-14.18-24.5ZM1818.74,506.07l19.74-11.43,15.37,26.54-19.74,11.43-15.37-26.54Z"></path><path class="cls-1" d="M1700.47,688.66c-18.66-42.76-14.99-59.24-.57-65.53,9.85-4.3,21.67,3.13,31.75,17.03l.96-.42c-2.48-10.93.5-18.52,8.42-21.98,6.01-2.62,13.39-.12,20.69,6.13l8.58,6.55c-1.81-19.23,6.56-33.47,23.62-40.91,25.47-11.12,47.48,1.3,61.11,32.53l24.43,55.98-19.94,8.7-5.66-12.97c-2.62-6.01-5.29-13.42-8.76-23.35l-2.27.7c3.62,16.15,2.82,31.37-12.07,37.87-20.18,8.81-39.88-2.9-53.61-34.37-3.15-7.21-5.15-13.77-6.12-19.92l-5.24-.86c-3.62-.42-6.06-.79-8.47.26-4.57,1.99-4.67,6.33-1.42,13.78,5.56,12.73,11.46,25.6,16.81,37.85,10.38,23.78,5.08,39.83-12.46,47.48-22.82,9.96-40.27.13-59.78-44.56ZM1750.5,712.87c6.49-2.83,9.06-9.39,4.24-20.44l-17.3-39.64c-5.35-12.25-14.32-15.77-20.57-13.05-9.13,3.98-9.83,12.87,2.96,42.18,13.21,30.27,21.06,35.14,30.67,30.95ZM1803.61,613.04c-12.01,5.24-16.76,15.33-8.59,34.06s19.12,22.83,31.13,17.59c12.01-5.24,15.93-17.25,8.17-35.03-7.86-18.02-18.94-21.77-30.71-16.63Z"></path><path class="cls-1" d="M1778.01,768.52l-6.99-27.16,119.32-30.69,6.86,26.66-31.48,8.1.59,2.29c23.79.92,40.14,12.95,45.3,33,6.4,24.88-7.29,41.12-33.18,47.78l-79.72,20.51-6.99-27.16,72.61-18.68c14.47-3.72,23.5-12.81,19.26-29.31-4.7-18.28-20.02-27.33-38.05-22.69l-67.53,17.37Z"></path><path class="cls-1" d="M1883.56,1088.44l-26.43-1.49,4.58-81.13,26.43,1.49-4.58,81.13Z"></path><path class="cls-1" d="M1851.23,1295.7l-.66,1.71c17.46,13.75,25.52,31.46,17.51,52.25-10.46,27.15-37.83,34.03-76.96,18.95-39.14-15.08-54.29-39.17-44.31-65.1,8.1-21.04,26.98-29.21,49.21-27.11l.66-1.71-30.58-11.78,10.08-26.17,157.04,60.49-10.08,26.17-71.92-27.7ZM1801.1,1342.69c24.95,9.61,40.33,5.42,47.77-13.9,6.97-18.1-1.32-34.5-21.38-42.22l-8.81-3.39c-19.32-7.44-37.06-.79-43.84,16.82-7.44,19.32,1.54,33.18,26.25,42.7Z"></path><path class="cls-1" d="M1724.83,1360.82l107.96,59.35-12.88,23.43-32.39-17.81-1.37,1.94c22.78,20.6,24.8,34.87,16.21,50.49l-2.15,3.91-27.79-15.28,3.28-5.97c12.5-22.74,8.88-35.2-13.17-47.32l-51.22-28.16,13.51-24.58Z"></path><path class="cls-1" d="M1663.54,1512.24l1.7-2.33c-12.37-16.84-13.75-35.38-.9-52.94,13-17.77,30.59-24.07,50.06-9.83,17.77,13,22.79,33.23,4.38,58.41l-21.66,29.62,6.77,4.95c12.91,9.44,24.18,9.56,34.39-4.4,8.51-11.64,7.54-22.74-2.24-33.79l20.65-18.02c16.05,17.58,17.74,40.58-.83,65.97-21.04,28.78-43.56,31.15-68.31,13.04l-63.48-46.42,15.78-21.58,23.7,17.33ZM1678.06,1521.24l4.02,2.94,18.88-25.81c8.36-11.43,8.92-21.08.67-27.11-7.19-5.26-16.58-5.3-26.02,7.6-11.6,15.87-10.03,33.26,2.45,42.39Z"></path><path class="cls-1" d="M1589.92,1553.24l19.9-19.77,86.83,87.41-19.53,19.4-22.91-23.06-1.67,1.66c11.24,20.98,9.13,41.18-5.56,55.77-18.23,18.1-39.16,14.51-58-4.46l-58.01-58.4,19.9-19.77,52.83,53.19c10.53,10.6,22.94,13.79,35.03,1.79,13.39-13.3,13.45-31.1.33-44.3l-49.14-49.47Z"></path><path class="cls-1" d="M1466.14,1699.96l1.49-1.07c-7.2-20.94-3.76-41.42,14.17-54.19,23.06-16.43,49.74-7.44,73.93,26.51,24.49,34.37,24.37,63.11.73,79.63-17.99,13.14-37.31,9.53-54.91-4.33l-1.49,1.06,44.87,62.98-22.84,16.28-97.66-137.06,22.84-16.28,18.86,26.47ZM1479.83,1719.17l5.48,7.69c12.32,17.29,30.57,21.67,46.15,10.57,16.65-11.87,17.31-28.11,1.64-50.1-15.36-21.56-30.5-26.55-47.58-14.38-15.37,10.95-17.86,29.14-5.69,46.22Z"></path><path class="cls-1" d="M1401.12,1701.55l59.21,108.05-24.83,13.61-59.21-108.05,24.83-13.61ZM1471.32,1827.48l10.96,20-26.89,14.74-10.96-20,26.89-14.74Z"></path><path class="cls-1" d="M1327.53,1739.09l26.01-10.49,46.08,114.27-25.53,10.29-12.16-30.15-2.19.88c2.21,23.7-7.57,41.5-26.78,49.24-23.82,9.61-41.72-1.83-51.72-26.63l-30.78-76.34,26.01-10.49,28.04,69.53c5.59,13.86,15.78,21.62,31.58,15.25,17.5-7.06,24.47-23.43,17.51-40.7l-26.08-64.67Z"></path><path class="cls-1" d="M1172.76,1742.92c45.5-10.34,61-3.65,64.49,11.69,2.38,10.48-7.12,20.71-22.67,28l.23,1.02c11.2-.4,18.1,3.95,20.02,12.39,1.45,6.39-2.38,13.18-9.89,19.18l-8.04,7.2c19.23,1.81,31.65,12.7,35.78,30.85,6.16,27.09-10.15,46.39-43.38,53.95l-59.56,13.54-4.82-21.22,13.8-3.14c6.39-1.45,14.17-2.68,24.57-4.24l-.27-2.36c-16.54.54-31.35-3.09-34.95-18.94-4.88-21.47,10.3-38.63,43.79-46.25,7.67-1.74,14.49-2.49,20.72-2.29l1.82-4.98c1.09-3.47,1.91-5.81,1.32-8.37-1.1-4.86-5.34-5.77-13.27-3.97-13.55,3.08-27.29,6.47-40.33,9.44-25.31,5.75-40.07-2.45-44.32-21.11-5.52-24.28,7.4-39.59,54.94-50.39ZM1139.62,1787.55c1.57,6.9,7.53,10.65,19.29,7.98l42.18-9.59c13.04-2.96,18.17-11.12,16.66-17.77-2.21-9.71-10.81-12.06-41.99-4.97-32.21,7.32-38.46,14.12-36.13,24.34ZM1227.77,1858.38c-2.91-12.78-11.92-19.33-31.86-14.8-19.94,4.53-26,14.51-23.1,27.29s13.97,18.87,32.88,14.57c19.17-4.36,24.92-14.54,22.08-27.06Z"></path><path class="cls-1" d="M887.58,1878.64l2.11-26.39,81,6.47-2.11,26.39-81-6.47Z"></path><path class="cls-1" d="M675.77,1736.86c20.84,8.6,28.57,27.67,25.94,49.84l1.7.7,27.69-67.12,25.93,10.7-62.18,150.73-25.93-10.7,12.2-29.56-1.7-.7c-14.16,17.13-32.06,24.77-52.65,16.28-26.9-11.1-33.12-38.62-17.13-77.39,16-38.77,40.45-53.36,66.13-42.76ZM635.33,1790.21c-10.2,24.72-6.37,40.19,12.77,48.09,17.93,7.4,34.52-.5,42.72-20.38l3.6-8.72c7.9-19.14,1.67-37.03-15.78-44.23-19.14-7.9-33.21.76-43.31,25.24Z"></path><path class="cls-1" d="M619,1713.53l-61.88,106.54-23.12-13.43,18.56-31.96-1.91-1.41c-21.13,22.29-35.45,23.98-50.86,15.03l-3.85-2.24,15.93-27.43,5.89,3.42c22.44,13.03,34.98,9.71,47.62-12.06l29.36-50.55,24.26,14.08Z"></path><path class="cls-1" d="M462.53,1786.66l-13.14,18.64-25.07-17.67,13.14-18.64,25.07,17.67ZM544.76,1668.23l-71,100.69-23.14-16.32,71-100.69,23.14,16.31Z"></path><path class="cls-1" d="M478.65,1618.65l20.88,18.73-82.26,91.72-20.49-18.38,21.7-24.2-1.76-1.58c-20.3,12.43-40.58,11.49-56-2.34-19.12-17.15-16.74-38.26,1.11-58.16l54.96-61.28,20.88,18.73-50.06,55.81c-9.98,11.12-12.45,23.7.24,35.07,14.05,12.6,31.82,11.63,44.24-2.22l46.55-51.91Z"></path><path class="cls-1" d="M321.18,1605.51l11.2,13.19-17.38,14.76-11.2-13.19-25.37,21.55-18.33-21.58,25.37-21.55-23.42-27.57,17.38-14.76,23.42,27.57,44.95-38.18c9.19-7.81,11.1-15.28,3.13-24.67-4.07-4.79-8.64-8.14-13.94-11.55l16.97-18.89c8.14,5.13,13.41,8.9,21.38,18.29,17.48,20.58,11.36,40.91-6.22,55.84l-47.95,40.73Z"></path><path class="cls-1" d="M172.67,1322.75l24.16-10.83,33.24,74.15-24.16,10.83-33.24-74.15Z"></path><path class="cls-1" d="M194.82,1116l1.72,28-122.97,7.56-1.69-27.47,32.44-1.99-.14-2.36c-23.44-5.39-36.95-20.05-38.24-40.98-1.42-23.02,12.01-35.41,34.66-38.64l-.18-2.88c-23.92-4.57-38.15-18.14-39.55-40.9-1.59-25.9,14.9-39.52,41.59-41.16l82.16-5.05,1.74,28.26-74.83,4.6c-14.91.92-25.48,8.4-24.47,24.88,1.19,19.36,14.49,30.62,33.07,29.48l69.6-4.28,1.72,28-74.83,4.6c-14.91.92-25.47,8.66-24.46,25.14,1.16,18.84,14.49,30.62,33.07,29.48l69.6-4.28Z"></path><path class="cls-1" d="M171.92,851.5l-.41,2.85c18.82,9.08,28.73,24.81,25.61,46.34-3.15,21.79-15.74,35.6-39.61,32.15-21.79-3.15-35.71-18.67-31.24-49.54l5.25-36.32-8.3-1.2c-15.83-2.29-25.84,2.89-28.32,20.01-2.06,14.27,4,23.62,17.82,28.8l-9.79,25.6c-22.42-8.01-34.69-27.53-30.19-58.66,5.1-35.28,23.88-47.93,54.24-43.54l77.83,11.25-3.83,26.46-29.06-4.2ZM154.87,850.36l-4.93-.71-4.58,31.65c-2.03,14.01,2,22.8,12.12,24.26,8.82,1.27,17.13-3.09,19.42-18.91,2.81-19.46-6.73-34.08-22.03-36.29Z"></path><path class="cls-1" d="M210.96,806.79l-118.64-33.23,7.21-25.75,35.59,9.97.89-2.2c-26.87-14.87-32.09-28.31-27.28-45.48l1.2-4.29,30.54,8.55-1.84,6.56c-7,24.99-.64,36.3,23.59,43.09l56.29,15.76-7.56,27.01Z"></path><path class="cls-1" d="M178.39,670.95l4.41-10.37-31.4-55.49,12.61-29.67,2.65,1.13,34.02,67.42,75.41-24.64,2.65,1.13-12.61,29.67-64.03,18.65-4.41,10.37,47.53,20.19-11.07,26.06-154.9-65.8,11.07-26.06,88.06,37.41Z"></path><path class="cls-1" d="M228.44,588.47c-35.41-21.99-43.89-55.03-23.56-87.76,19.64-31.62,48.33-35.09,77.06-17.25,4.01,2.49,8.68,5.39,13.75,9.16l-46.88,75.49c20.03,9.97,35.56,6.34,46.62-11.47,10.37-16.7,5.95-27.47-2.27-36.59l18.51-16.89c15.89,16.65,20.64,37.81,3.22,65.87-19.91,32.07-51.48,41.16-86.44,19.45ZM232.91,557.92l33.33-53.67c-18.59-10.31-32.92-8.1-43.29,8.6-10.1,16.26-7.36,31.23,9.97,45.07Z"></path><path class="cls-1" d="M279.88,438.07l-10.99,13.36-17.61-14.48,10.99-13.36-25.71-21.14,17.98-21.87,25.71,21.14,22.98-27.94,17.61,14.48-22.98,27.94,45.56,37.46c9.31,7.66,17,8.21,24.83-1.3,4-4.86,6.48-9.94,8.89-15.77l21.6,13.35c-3.6,8.92-6.38,14.78-14.21,24.29-17.15,20.85-38.24,18.44-56.06,3.79l-48.59-39.96Z"></path><path class="cls-1" d="M308.92,337.78l-16.24-16.01,21.53-21.84,16.24,16.01-21.53,21.84ZM412.33,438.25l-87.74-86.49,19.87-20.16,87.74,86.49-19.87,20.16Z"></path><path class="cls-1" d="M472.04,381.12l-21.88,17.54-77.07-96.13,21.48-17.22,20.33,25.36,1.84-1.48c-8.95-22.06-4.71-41.92,11.45-54.87,20.04-16.07,40.48-10.27,57.2,10.59l51.49,64.22-21.88,17.54-46.9-58.5c-9.35-11.66-21.35-16.15-34.64-5.49-14.73,11.8-16.67,29.49-5.03,44.01l43.62,54.4Z"></path><path class="cls-1" d="M619.2,332.67c-40.55,23.08-57.33,21.16-65.11,7.49-5.32-9.34.82-21.88,13.58-33.37l-.52-.91c-10.61,3.62-18.47,1.46-22.75-6.06-3.24-5.7-1.54-13.3,3.91-21.23l5.61-9.22c-18.93,3.84-33.97-2.99-43.18-19.16-13.74-24.15-3.72-47.35,25.9-64.2l53.08-30.21,10.76,18.91-12.3,7c-5.7,3.24-12.79,6.68-22.29,11.18l.94,2.18c15.68-5.3,30.9-6.12,38.94,8,10.89,19.14,1.33,39.96-28.52,56.95-6.83,3.89-13.15,6.58-19.17,8.19l-.3,5.3c-.04,3.64-.14,6.11,1.16,8.39,2.46,4.33,6.79,3.98,13.85-.04,12.08-6.87,24.25-14.1,35.87-20.71,22.55-12.84,39.07-9.26,48.53,7.37,12.32,21.64,4.38,40.03-37.99,64.15ZM533.11,238.09c6.48,11.39,17.01,15.05,34.78,4.94,17.77-10.11,20.68-21.42,14.2-32.81-6.48-11.39-18.83-14.01-35.69-4.42-17.09,9.72-19.64,21.13-13.29,32.3ZM637.99,280.35c-3.5-6.15-10.29-8.02-20.77-2.05l-37.59,21.39c-11.62,6.61-14.17,15.91-10.8,21.83,4.93,8.66,13.84,8.41,41.63-7.4,28.71-16.34,32.72-24.65,27.53-33.77Z"></path><path class="cls-1" d="M853.08,120.56l5.53,25.89-79.47,16.98-5.53-25.89,79.47-16.98Z"></path></g><g></g></g></g></g></svg> 