<?xml version="1.0" encoding="UTF-8"?> <svg xmlns="http://www.w3.org/2000/svg" xmlns:xlink="http://www.w3.org/1999/xlink" width="174.953" height="47.358" viewBox="0 0 174.953 47.358"><defs><clipPath id="clip-path"><rect id="Rectangle_2073" data-name="Rectangle 2073" width="174.953" height="47.358" fill="#6c4cdf"></rect></clipPath></defs><g id="Group_2585" data-name="Group 2585" clip-path="url(#clip-path)"><path id="Path_1155" data-name="Path 1155" d="M183.2,12.222a3.832,3.832,0,0,0,3.036.509c2.161-.486,4.506-2.64,2.849-4.93a3.513,3.513,0,0,0-3.23-1.3,5.253,5.253,0,0,0-1.3.273c-2.225.772-3.637,3.824-1.357,5.445" transform="translate(-120.949 -4.312)" fill="#6c4cdf"></path><path id="Path_1156" data-name="Path 1156" d="M55.223,2.481c-1.882-.984-4.943.07-7.549,4.931-1.173,2.216-1.319,2.736-2.631,4.931-2.31,3.864-4.141,7.864-6.776,11.446-1.124,1.528-2.2,3.281-3.764,4.287a1.461,1.461,0,0,1-1.751.185c-1.526-.983-1.288-4.559-1.1-6.174a26.055,26.055,0,0,1,1.791-6.535c.3-.743,2.437-5.112-.335-5.486-3.053-.412-5.54,3.52-5.54,3.52-.918,1.423-1.848,2.835-2.813,4.22-1.227,1.763-2.425,3.521-3.8,5.163-1.2,1.437-2.287,3.091-3.953,3.986a2.916,2.916,0,0,1-2.137.367c-2.377-.677-1.185-4.7-.777-6.35,1.252-5.058,4.577-9.2,5.907-14.277.427-1.63.647-3.509-.286-4.888A5.042,5.042,0,0,0,15.5,0C10.616-.086,5.332,2.717,1.88,6.323A6.309,6.309,0,0,0,.057,9.244a2.843,2.843,0,0,0,.878,2.723,2.447,2.447,0,0,0,1.972.349C4.85,11.855,5.94,9.694,7.228,8.366c8.9-9.178,8.97-3.554,7.406-.825-.8,1.393-1.545,2.787-2.348,4.167a53.99,53.99,0,0,0-3.437,6.45c-.934,2.261-2.084,6.155-1.838,8.6a7.6,7.6,0,0,0,3.658,5.926c4.015,2.208,7.436-.981,9.934-3.718a36.509,36.509,0,0,0,3.441-4.474c.568-.858,1.059-1.78,1.686-2.588.763-.985,1.923-2.015,3.17-1.579a.468.468,0,0,1,.231.145.238.238,0,0,1-.069.352.761.761,0,0,1-.2.077,4.2,4.2,0,0,0-2.4,2.3,7.124,7.124,0,0,0,3.011,9.07c3.644,2.067,7.859,0,10.452-3.158q.631-.77,1.243-1.558l.019-.024C44.9,22.738,48,17.352,51.383,12.3c1.852-2.765,6.3-8.539,3.841-9.823" transform="translate(0 0)" fill="#6c4cdf"></path><path id="Path_1157" data-name="Path 1157" d="M260.1,25.423a8.945,8.945,0,0,1-.336,1.421A7.285,7.285,0,0,1,258.1,29.46a2.884,2.884,0,0,1-1.833,1.077c-.607.032-1.442-.293-1.5-.958a3.337,3.337,0,0,1,1.113-2.364,6.849,6.849,0,0,1,3.09-1.554c.121-.811.272-1.939.344-2.924a8.016,8.016,0,0,0-6.569,5.173,3.806,3.806,0,0,0,.979,4.142c1.463,1.255,4.632,1.287,6.331.563a9.656,9.656,0,0,0,5.764-7.643,18.762,18.762,0,0,1,8.8,3.135c.456.287.809.692,1.238,1.019.953.724,1.527-.327,1.767-1.149a3.07,3.07,0,0,0-1.155-3.082c-2.8-2.561-8.924-2.389-10.5-2.4.006-1.468-.771-7.008-.926-8.488a9.111,9.111,0,0,1-.128-2.589,4.167,4.167,0,0,0-.537-2.78c-.522-.727-1.33-.727-2.251-.745-.9-.019-1.259.537-1.6,1.289-.355.773-.641,1.576-.966,2.364-.892,2.16-3.035,4.318-4.556,6.034-1.584,1.786-3.4,3.581-5.15,5.21-2.525,2.344-5.124,4.521-8.416,5.666-1.635.569-2.7-.31-2.491-2.039a10.171,10.171,0,0,1,.986-3.381c1.474-2.876,3.124-5.66,4.645-8.512a2.074,2.074,0,0,1,1.971-1.185c1.65-.1,6.15-.6,7.766-.951a1.824,1.824,0,0,0,1.461-1.979c-.291-.966-1.147-.875-1.907-.915-1.009-.055-4.861.183-6.083.123.3-.537.446-.875.65-1.181.917-1.368,1.786-2.761,2.665-4.152a3.732,3.732,0,0,0,.675-1.854C251.82.25,249.214.04,247.881,1.106a13.361,13.361,0,0,0-2.708,3.742c-.792,1.317-1.568,2.644-2.387,3.946a1.388,1.388,0,0,1-1.387.773,12.32,12.32,0,0,0-2.58.121c-1.33.221-1.916.909-1.9,2.013.015.886.571,1.4,1.911,1.65.671.126.805.367.474.967a44.763,44.763,0,0,1-10.145,12.57,11.172,11.172,0,0,1-3.132,1.8c-1.007.395-1.659-.344-1.272-1.364a12.791,12.791,0,0,1,1.323-2.655c2.249-3.275,4.579-6.492,6.838-9.759a11.027,11.027,0,0,0,1.448-2.674,1.689,1.689,0,0,0-1.861-2.43c-1.531.1-3.05.367-4.568.588-.792.115-1.589.259-2.381.374l-.711.1.444-.722c.3-.5.746-2.751-2.191-2.839-3.568-.11-5.985,1.914-5.7,3.982a2.408,2.408,0,0,0,1.066,1.621,3.5,3.5,0,0,0,1.892.563,2.191,2.191,0,0,0,.505-.028l-.943,1.374c-.093.14-.189.28-.285.416l-.023.034a62.576,62.576,0,0,1-10.343,11.9,4.079,4.079,0,0,1-1.654.977c-3.965.93.172-5.059.79-5.993,1.376-2.085,2.9-4.073,4.3-6.14.629-.926,1.34-1.994.656-3.1-.771-1.255-2.151-1.007-3.328-.767-.909.185-.756-.308-1.022-.877a3.6,3.6,0,0,0-1.308-1.478A6.435,6.435,0,0,0,204,8.745c-4.94.087-9.735,3.326-12.857,6.932-1.521,1.759-2.667,3.837-4.158,5.626a49.815,49.815,0,0,1-5.214,5.348,32.408,32.408,0,0,1-6.469,4.785,47.664,47.664,0,0,1-5.061,2.194c-2,.754-4.033,1.419-6.08,2.034-1.134.378-2.211.682-3.084.947a10.789,10.789,0,0,0-5.207,2.85c-3.564,4.116,1.586,8.158,5.887,8.217,2.7.036,4.9-1.707,6.333-3.4,1.818-2.149,6.305-9.71,6.305-9.71s5.309-3.513,5.311-3.513c.684-.544,1.385-1.083,2.107-1.637,1.459-1.119,2.767-2.434,4.226-3.731.079.941.119,1.792.227,2.636.329,2.6,2.009,4.43,4.311,4.56a7.659,7.659,0,0,0,4.315-1.109,18.859,18.859,0,0,0,5.564-5.5c.436-.595.875-1.187,1.313-1.784-.314,2.585-1.822,5.469.72,7.476,2.23,1.761,5.208.221,7.119-1.348A41.369,41.369,0,0,0,216.3,23.1c2.191-2.943,4.3-5.946,6.479-8.9.259-.355.529-.873.879-.956,1.57-.378,3.171-.625,5.023-.969a11.776,11.776,0,0,1-.631,1.24c-1.665,2.393-3.43,4.721-5,7.178a53.227,53.227,0,0,0-3.889,6.926,3.6,3.6,0,0,0,2.816,5.282,8.307,8.307,0,0,0,2.939-.242c3.1-.841,5.316-2.992,7.457-5.227.274-.289.537-.586.864-.947.132,2.134-.126,4.422,1.926,5.771a4.991,4.991,0,0,0,2.546.76,11.709,11.709,0,0,0,6.526-1.812V31.18c2.321-1.191,4.284-3.232,6.409-5.048,3.209-2.74,5.305-5.891,8.193-8.969.123-.132,1.485-1.417,1.391-1.6a5.345,5.345,0,0,1,.311,2c.056.994.057,1.993.026,2.988-.031.962-.125,1.92-.235,2.876-.077.663-.134,1.336-.241,2M167.2,37.866c-.325.382-.648.771-.977,1.153l-.03.036a19.973,19.973,0,0,1-1.565,1.656c-1.087,1-2.693,2.13-4.211,1.319a1.251,1.251,0,0,1-.707-1.242,1.6,1.6,0,0,1,1.143-1.06c1.816-.648,3.568-1.478,5.341-2.238v0l.013,0c.225-.1.45-.193.678-.287a1.294,1.294,0,0,1,.2-.066l1.1-.44Zm33.519-14.75c-1.943,2.051-4.392,4.511-7.333,4.91a2.178,2.178,0,0,1-.527.011,1.6,1.6,0,0,1-1.03-.484,1.771,1.771,0,0,1-.346-1.474,8.882,8.882,0,0,1,.958-2.468,28.468,28.468,0,0,1,9.236-10.1,7.129,7.129,0,0,1,4.216-1.434,1.85,1.85,0,0,1,1.6,1.022,1.84,1.84,0,0,1-.168,1.542,43.206,43.206,0,0,1-6.609,8.478m21.934-12.271c-.043.083-.163.384-.261.412a5.805,5.805,0,0,1-1.654.285.8.8,0,0,1-.44-.115c-.457-.312,0-.871.312-1.085a2.849,2.849,0,0,1,1.75-.433.621.621,0,0,1,.314.091c.265.183.094.622-.021.845" transform="translate(-102.77 -0.32)" fill="#6c4cdf"></path><path id="Path_1158" data-name="Path 1158" d="M156.33,39.857c2.313-2.957,4.584-6.654,7.6-8.937,1.581-1.2,5.841-2.831,6.537.188a3.391,3.391,0,0,1-.73,2.736,20.9,20.9,0,0,1-3.471,3.229,41.037,41.037,0,0,1-4.3,3.02,43.051,43.051,0,0,1-5.091,2.924,2.3,2.3,0,0,0-1.6,2.45c.143,1.572,1.9,1.4,3.039,1.04a37.525,37.525,0,0,1,4.014-1.086,3.374,3.374,0,0,1-.035.412,4.672,4.672,0,0,1-.322,1.217,11.779,11.779,0,0,1-.678,1.482,45.33,45.33,0,0,0,5.856-2.631,6.771,6.771,0,0,0,1.009-2.888,1.015,1.015,0,0,0-.879-1.111,5.775,5.775,0,0,0-1.315-.058,16.535,16.535,0,0,0-3.336.579c.309-.317,10.283-5.343,12.919-8.657,2.094-2.633,1.646-6.453-1.788-7.75a9.422,9.422,0,0,0-3.855-.469c-4.188.282-7.984,3.734-10.573,6.828-2.433,2.907-4.545,6.066-7.188,8.815-1.045,1.087-4.722,5.077-6.413,4.08-2.38-1.4,6.257-11.767,7.855-14.086a3.583,3.583,0,0,0,.91-2.639A2.219,2.219,0,0,0,152.1,27c-1.432.151-2.49,1.363-3.36,2.511a90.038,90.038,0,0,0-7.3,11.138,13.257,13.257,0,0,0-1.459,3.378,4.8,4.8,0,0,0,.433,3.574c1.109,1.8,3.641,2.269,5.658,1.633,4.4-1.387,7.561-5.927,10.26-9.377" transform="translate(-92.9 -16.956)" fill="#6c4cdf"></path></g></svg> 