<?xml version="1.0" encoding="UTF-8"?> <svg xmlns="http://www.w3.org/2000/svg" xmlns:xlink="http://www.w3.org/1999/xlink" width="2650.729" height="927.474" viewBox="0 0 2650.729 927.474"><defs><clipPath id="clip-path"><rect id="Rectangle_2073" data-name="Rectangle 2073" width="2599.297" height="703.607" fill="#dfd0f3"></rect></clipPath></defs><g id="watermerk_wizarts" data-name="watermerk wizarts" transform="matrix(0.996, -0.087, 0.087, 0.996, 0, 226.544)" opacity="0.311"><g id="Group_2585" data-name="Group 2585" clip-path="url(#clip-path)"><path id="Path_1155" data-name="Path 1155" d="M199.29,91.662c12.8,9.1,29.791,11.009,45.113,7.564C276.5,92,311.343,60,286.733,25.978c-11.139-15.4-29.741-20.706-47.99-19.261a78.034,78.034,0,0,0-19.285,4.054C186.407,22.244,165.416,67.59,199.29,91.662" transform="translate(725.597 25.866)" fill="#dfd0f3"></path><path id="Path_1156" data-name="Path 1156" d="M820.463,36.866C792.5,22.247,747.021,37.908,708.31,110.119c-17.431,32.917-19.6,40.645-39.085,73.253C634.912,240.785,607.7,300.207,568.55,353.422c-16.7,22.7-32.663,48.752-55.917,63.7-9.144,5.878-16.907,8.611-26.012,2.747-22.666-14.6-19.131-67.739-16.314-91.721,3.954-33.66,14.325-66.163,26.615-97.086,4.388-11.044,36.213-75.955-4.976-81.51-45.357-6.123-82.313,52.3-82.313,52.3-13.631,21.14-27.462,42.121-41.787,62.693-18.228,26.191-36.023,52.307-56.4,76.708-17.825,21.35-33.979,45.92-58.729,59.228-9.762,5.245-21.16,8.466-31.745,5.455-35.32-10.057-17.6-69.883-11.542-94.343,18.607-75.143,68-136.669,87.757-212.121,6.342-24.212,9.618-52.138-4.248-72.615C279.412,6.881,253.719.454,230.256.03,157.73-1.281,79.222,40.371,27.942,93.94c-11.861,12.395-23.494,26.311-27.1,43.4-2.837,13.472,1.471,32.134,13.038,40.451,8.3,5.973,19.345,7.549,29.3,5.19,28.883-6.846,45.068-38.96,64.214-58.694,132.291-136.36,133.269-52.806,110.024-12.255-11.861,20.7-22.95,41.408-34.881,61.905-18.2,31.267-37.185,62.244-51.061,95.829s-30.968,91.452-27.313,127.794,23.249,70.945,54.351,88.041C218.175,518.4,269,471.034,306.111,430.359c18.692-20.482,35.574-42.964,51.131-66.467,8.436-12.744,15.736-26.445,25.044-38.456,11.333-14.634,28.569-29.935,47.092-23.459a6.949,6.949,0,0,1,3.425,2.154,3.54,3.54,0,0,1-1.022,5.225,11.3,11.3,0,0,1-2.947,1.147c-15.626,4.657-28.225,18.468-35.709,34.109C368.7,395.657,394.2,454.6,437.859,479.371c54.132,30.713,116.755.07,155.281-46.922q9.378-11.435,18.473-23.155l.284-.364c55.159-71.1,101.254-151.133,151.5-226.121,27.517-41.074,93.536-126.872,57.064-145.943" transform="translate(-0.001 0)" fill="#dfd0f3"></path><path id="Path_1157" data-name="Path 1157" d="M1720.867,371.038a132.86,132.86,0,0,1-4.991,21.11c-4.981,14.863-14,27.477-24.59,38.875-7.035,7.574-16.344,15.491-27.228,16-9.025.474-21.425-4.358-22.312-14.235-1.2-13.123,8.018-26.121,16.538-35.116,11.642-12.24,31.645-19.375,45.905-23.095,1.8-12.056,4.039-28.809,5.11-43.447-50.293,8.83-85.443,39.03-97.589,76.858-6.975,21.838-3.44,46.1,14.544,61.531,21.738,18.647,68.821,19.121,94.059,8.361,45.247-19.251,80.464-63.895,85.634-113.559,52.128,5.679,85.6,18.553,130.726,46.573,6.781,4.258,12.021,10.286,18.393,15.142,14.165,10.76,22.686-4.856,26.251-17.067,5.2-17.735-4.382-34.049-17.162-45.786-41.527-38.052-132.586-35.495-156.029-35.719.1-21.8-11.452-104.121-13.756-126.114-1.326-12.465-4.262-26.41-1.894-38.461,2.114-10.854-.095-30.389-7.983-41.3-7.763-10.795-19.754-10.795-33.446-11.074-13.317-.284-18.712,7.982-23.823,19.151-5.27,11.483-9.528,23.414-14.354,35.116-13.258,32.089-45.093,64.149-67.684,89.642-23.539,26.535-50.453,53.2-76.514,77.4-37.514,34.832-76.135,67.175-125.042,84.182-24.3,8.456-40.107-4.607-37.015-30.289,2.054-17.137,6.786-34.931,14.644-50.233,21.9-42.724,46.414-84.087,69.005-126.463,6.751-12.624,15.3-16.723,29.282-17.61,24.515-1.546,91.377-8.895,115.384-14.135,15.023-3.311,24.8-19.121,21.709-29.407-4.323-14.354-17.037-13-28.33-13.6-14.987-.823-72.226,2.712-90.369,1.83,4.387-7.982,6.626-13,9.658-17.545,13.626-20.318,26.534-41.019,39.6-61.686,5.265-8.361,9.812-17.67,10.031-27.542.693-32.279-38.022-35.4-57.836-19.565-17.67,14.075-28.809,36.572-40.227,55.6-11.771,19.56-23.289,39.279-35.464,58.624-5.146,8.137-10.605,11.956-20.607,11.483-12.749-.568-25.807-.314-38.336,1.8-19.755,3.281-28.46,13.507-28.176,29.911.219,13.158,8.486,20.826,28.395,24.516,9.971,1.865,11.961,5.46,7.035,14.359-39.249,71.149-88.944,134.036-150.724,186.757-13.442,11.458-30.035,20.228-46.539,26.73-14.957,5.868-24.645-5.116-18.9-20.258,5.235-13.661,11.423-27.422,19.659-39.444,33.411-48.652,68.028-96.452,101.6-144.985,8.52-12.365,16.817-25.648,21.519-39.723,7.444-22.118-4.542-37.549-27.642-36.1-22.751,1.421-45.307,5.46-67.868,8.74-11.772,1.705-23.6,3.849-35.37,5.554l-10.57,1.451,6.591-10.725c4.482-7.419,11.079-40.865-32.558-42.186-53.01-1.64-88.919,28.43-84.661,59.158,1.391,9.972,7.638,18.458,15.84,24.077,8.521,5.839,17.954,7.918,28.116,8.361.409.03,6.88.155,7.508-.409L1124,213.469c-1.386,2.084-2.807,4.163-4.228,6.182l-.344.509c-44.933,64.807-93.934,125.107-153.661,176.82-7.289,6.277-15.242,12.305-24.58,14.514-58.909,13.821,2.552-75.158,11.737-89.044,20.447-30.982,43.038-60.519,63.894-91.217,9.339-13.756,19.909-29.626,9.748-46.13-11.453-18.647-31.96-14.958-49.44-11.393-13.507,2.747-11.233-4.572-15.177-13.028-4.323-9.279-10.825-16.095-19.435-21.963-15.9-10.884-35.879-15.775-55.03-15.461-73.393,1.3-144.636,49.41-191.02,102.989-22.591,26.126-39.628,57.014-61.78,83.584a740.09,740.09,0,0,1-77.461,79.451c-29.851,26.41-60.484,52.756-96.109,71.084-24.3,12.495-49.634,23-75.193,32.6-29.721,11.2-59.916,21.075-90.335,30.225-16.847,5.619-32.847,10.131-45.816,14.075-28.519,8.646-57.837,19.814-77.366,42.34-52.945,61.152,23.568,121.2,87.463,122.08,40.042.534,72.854-25.368,94.094-50.452,27-31.93,93.68-144.262,93.68-144.262s78.877-52.187,78.912-52.187c10.161-8.077,20.571-16.089,31.3-24.326,21.679-16.628,41.114-36.158,62.793-55.438,1.166,13.98,1.765,26.63,3.375,39.159,4.891,38.556,29.851,65.819,64.054,67.744,22.621,1.291,44.36-4.956,64.114-16.473,34.547-20.163,59.537-50.039,82.666-81.784,6.472-8.835,13-17.635,19.5-26.505-4.667,38.4-27.073,81.25,10.695,111.066,33.132,26.156,77.372,3.281,105.767-20.033,38.935-31.965,69.573-71.593,99.394-111.6,32.558-43.731,63.954-88.345,96.263-132.266,3.849-5.27,7.858-12.968,13.063-14.2,23.319-5.614,47.107-9.279,74.624-14.389-4.387,8.775-6.312,14.01-9.373,18.428-24.735,35.559-50.956,70.142-74.241,106.649-21.14,33.131-41.872,67.081-57.776,102.894-16.658,37.549,4.7,74.654,41.842,78.468a123.422,123.422,0,0,0,43.667-3.595c46-12.495,78.977-44.459,110.782-77.651,4.073-4.293,7.982-8.71,12.844-14.075,1.954,31.71-1.865,65.694,28.619,85.733,11.168,7.319,24.451,10.76,37.828,11.293,36,1.356,68-9.653,96.961-26.914v-.379c34.488-17.7,63.645-48.024,95.226-75,47.675-40.705,78.822-87.528,121.731-133.249,1.83-1.954,22.057-21.046,20.667-23.823,4.293,8.586,4.088,20.4,4.617,29.726.837,14.773.852,29.606.384,44.395-.453,14.29-1.85,28.529-3.49,42.729-1.137,9.857-1.995,19.844-3.575,29.676M340.735,555.911c-4.827,5.679-9.622,11.453-14.514,17.132l-.444.539a296.728,296.728,0,0,1-23.254,24.61c-16.154,14.893-40.007,31.646-62.568,19.595-6.686-3.565-11.832-11.014-10.506-18.458,1.451-7.952,9.339-13.033,16.977-15.745,26.974-9.623,53.005-21.963,79.351-33.256v-.035l.189-.06c3.345-1.451,6.691-2.872,10.067-4.263a19.214,19.214,0,0,1,3.031-.977l16.4-6.531ZM838.729,336.775c-28.868,30.479-65.245,67.021-108.947,72.949a32.363,32.363,0,0,1-7.828.16c-5.834-.628-11.423-2.9-15.3-7.195-5.176-5.774-6.437-14.23-5.14-21.9,2.019-11.7,8.486-26.221,14.23-36.661,33.6-60.928,79.166-111.445,137.222-150.1,17.765-11.8,40.605-22.97,62.633-21.3,9.9.758,20.063,5.993,23.818,15.177,2.967,7.354,1.326,15.935-2.493,22.905-25.049,45.691-62.534,88.286-98.193,125.959m325.879-182.31c-.633,1.232-2.428,5.709-3.879,6.123-8.207,2.269-16.03,4.353-24.58,4.228a11.935,11.935,0,0,1-6.531-1.705c-6.786-4.637.059-12.938,4.637-16.124,7.005-4.921,17.545-7.13,26-6.437a9.22,9.22,0,0,1,4.667,1.356c3.943,2.717,1.391,9.244-.314,12.56" transform="translate(616.535 1.918)" fill="#dfd0f3"></path><path id="Path_1158" data-name="Path 1158" d="M385.054,238.517c34.363-43.931,68.1-98.856,112.976-132.78,23.489-17.755,86.785-42.066,97.125,2.787,3.251,14.115-2.084,29.113-10.844,40.65-13.686,18.024-34.113,33.75-51.564,47.98-20.173,16.453-41.727,31.142-63.819,44.873-24.416,15.177-49.3,31.735-75.641,43.442-15.945,7.085-25.428,18.149-23.773,36.4,2.119,23.359,28.27,20.851,45.147,15.446,4.1-1.311,59.731-18.308,59.642-16.129a50.1,50.1,0,0,1-.519,6.118A69.413,69.413,0,0,1,469,345.39a175.014,175.014,0,0,1-10.066,22.018c21.594-8.207,61.182-24.047,87.009-39.085,7.05-13.133,14.654-27.976,14.988-42.914.09-3.984-.862-8.127-3.41-11.193a16.863,16.863,0,0,0-9.643-5.31c-6.213-1.286-13.2-1.067-19.53-.867-17.87.558-48.707,7.718-49.56,8.6,4.592-4.717,152.778-79.386,191.933-128.612,31.112-39.115,24.456-95.874-26.56-115.14-17.556-6.626-38.327-8.242-57.278-6.965C524.665,30.111,468.259,81.4,429.793,127.371c-36.142,43.188-67.519,90.125-106.8,130.965-15.531,16.144-70.157,75.427-95.286,60.624-35.365-20.836,92.962-174.816,116.7-209.284,8.077-11.732,16.553-25.294,13.527-39.214C354.64,55.309,337.618,45.876,322.2,47.5c-21.275,2.239-36.991,20.253-49.919,37.3C231.074,139.1,196.821,190.642,163.8,250.279c-8.86,16-17.571,32.374-21.679,50.193s-3.151,37.519,6.437,53.1c16.473,26.764,54.087,33.71,84.063,24.261,65.365-20.612,112.338-88.061,152.429-139.311" transform="translate(557.329 101.722)" fill="#dfd0f3"></path></g></g></svg> 