<?xml version="1.0" encoding="UTF-8"?> <svg xmlns="http://www.w3.org/2000/svg" id="Laag_1" viewBox="0 0 150 100"><defs><style>.cls-1,.cls-2{fill:#dfd0f3;}.cls-2{fill-rule:evenodd;}</style></defs><polygon class="cls-2" points="34.22 46.28 34.22 62.42 28.84 57.04 28.84 46.28 18.09 46.28 18.09 57.04 18.09 62.42 12.71 57.04 12.71 40.9 28.84 40.9 34.22 46.28"></polygon><polyline class="cls-2" points="34.22 30.15 1.95 30.15 1.95 62.42 7.33 67.8 7.33 35.52 39.6 35.52 34.22 30.15"></polyline><polygon class="cls-2" points="44.98 73.18 44.98 40.9 39.6 35.53 39.6 67.8 7.33 67.8 12.71 73.18 44.98 73.18"></polygon><path class="cls-1" d="M74.22,39.7l-4.52,2.42c-.85-.85-1.69-1.45-2.52-1.78-.83-.33-1.8-.5-2.92-.5-2.03,0-3.68.61-4.93,1.83-1.25,1.22-1.88,2.79-1.88,4.69s.6,3.37,1.81,4.54c1.21,1.17,2.8,1.76,4.76,1.76,2.43,0,4.33-.83,5.68-2.5l4.29,2.92c-2.32,3.01-5.6,4.51-9.83,4.51-3.81,0-6.79-1.12-8.95-3.37-2.16-2.25-3.23-4.88-3.23-7.9,0-2.09.52-4.01,1.57-5.77,1.05-1.76,2.51-3.14,4.39-4.15,1.88-1.01,3.97-1.51,6.3-1.51,2.15,0,4.08.42,5.79,1.25,1.71.83,3.11,2.01,4.2,3.55"></path><path class="cls-1" d="M80.03,43.56c.61-1.32,1.28-2.24,2-2.77,1.15-.84,2.48-1.26,4.01-1.26,1.4,0,2.63.37,3.7,1.12,1.06.75,1.77,1.71,2.13,2.9h-11.84ZM97.25,46.78c0-3.57-1.07-6.44-3.2-8.61-2.13-2.17-4.9-3.26-8.31-3.26-3.21,0-5.87,1.09-8,3.26-2.13,2.17-3.19,4.91-3.19,8.2s1.06,5.89,3.19,8.02c2.13,2.14,4.88,3.2,8.26,3.2,2.18,0,4.06-.39,5.64-1.16,1.58-.78,2.94-1.97,4.08-3.59l-4.55-2.15c-1.45,1.41-3.19,2.12-5.21,2.12-1.69,0-3.08-.45-4.17-1.36-1.09-.9-1.76-2.12-2.01-3.65h17.44l.02-1.03Z"></path><path class="cls-1" d="M99.36,35.43h4.71v2.77c.49-1.08,1.15-1.9,1.97-2.46.82-.56,1.72-.84,2.69-.84.69,0,1.41.19,2.17.56l-1.67,4.7c-.63-.32-1.15-.48-1.55-.48-.83,0-1.52.52-2.09,1.55-.57,1.03-.85,3.05-.85,6.06l.02,1.05v8.72h-5.39v-21.63Z"></path><polygon class="cls-1" points="114.34 27.47 119.73 27.47 119.73 35.44 122.92 35.44 122.92 39.99 119.73 39.99 119.73 57.07 114.34 57.07 114.34 39.99 111.53 39.99 111.53 35.44 114.34 35.44 114.34 27.47"></polygon><path class="cls-1" d="M127.93,26.55c.93,0,1.73.34,2.39,1.03.66.68,1,1.51,1,2.49s-.33,1.78-.99,2.46c-.66.68-1.45,1.01-2.36,1.01s-1.75-.34-2.41-1.04c-.66-.69-1-1.53-1-2.52s.33-1.75.99-2.43c.66-.67,1.45-1.01,2.38-1.01M125.25,35.43h5.39v21.63h-5.39v-21.63Z"></path><path class="cls-1" d="M147.67,38.51l-3.36,3.38c-1.37-1.37-2.61-2.05-3.72-2.05-.61,0-1.09.13-1.43.39-.34.26-.52.58-.52.96,0,.29.11.56.33.8.22.24.76.58,1.62,1l1.98.99c2.09,1.03,3.53,2.08,4.31,3.15.78,1.07,1.17,2.32,1.17,3.76,0,1.91-.71,3.51-2.12,4.79-1.41,1.28-3.3,1.92-5.67,1.92-3.15,0-5.67-1.24-7.55-3.71l3.34-3.65c.64.75,1.38,1.35,2.24,1.81.85.46,1.61.69,2.28.69.72,0,1.29-.17,1.73-.51.44-.34.66-.74.66-1.19,0-.83-.79-1.65-2.38-2.44l-1.84-.91c-3.51-1.76-5.27-3.96-5.27-6.6,0-1.7.66-3.16,1.98-4.37,1.32-1.21,3.01-1.81,5.07-1.81,1.41,0,2.73.31,3.98.93,1.24.62,2.3,1.51,3.16,2.67"></path><path class="cls-1" d="M56.56,71.5c-.61-.63-.91-1.41-.91-2.34,0-.61.14-1.16.41-1.65.27-.49.66-.88,1.17-1.16.51-.29,1.04-.43,1.6-.43s1.07.14,1.56.43c.49.29.87.69,1.16,1.21.29.52.43,1.06.43,1.63s-.14,1.12-.43,1.63c-.29.51-.67.91-1.16,1.2-.49.28-1.01.42-1.59.42-.89,0-1.64-.31-2.25-.94M55.71,73.24v-1.48c.41.56.88.99,1.41,1.27.53.28,1.13.42,1.78.42,1.14,0,2.12-.41,2.93-1.24.81-.83,1.22-1.82,1.22-2.99s-.4-2.18-1.21-3.01c-.81-.83-1.78-1.24-2.91-1.24-.64,0-1.23.13-1.76.4-.54.27-1.02.66-1.46,1.2v-4.5h-1.04v11.18h1.04Z"></path><path class="cls-1" d="M65.73,68.38c.21-.74.53-1.29.95-1.67.57-.51,1.26-.76,2.05-.76.48,0,.94.1,1.38.3.44.2.79.47,1.06.8.27.33.47.77.61,1.33h-6.04ZM70.88,71.7c-.27.24-.61.43-1,.58-.39.14-.79.22-1.2.22-.86,0-1.57-.3-2.16-.9-.58-.6-.88-1.38-.9-2.32h7.29c-.01-1.1-.31-2.01-.89-2.75-.82-1.04-1.92-1.56-3.3-1.56s-2.41.51-3.21,1.53c-.63.8-.94,1.71-.94,2.74,0,1.09.37,2.06,1.12,2.92.74.86,1.78,1.29,3.1,1.29.6,0,1.13-.09,1.6-.27.47-.18.9-.45,1.27-.79s.71-.81,1-1.38l-.88-.46c-.32.53-.61.92-.89,1.16"></path><path class="cls-1" d="M74.83,65.17h1.04v1.45c.42-.56.87-.97,1.38-1.24.5-.28,1.05-.41,1.65-.41s1.14.15,1.6.46c.47.31.81.72,1.03,1.24.22.52.33,1.33.33,2.42v4.15h-1.04v-3.85c0-.93-.04-1.55-.12-1.86-.12-.53-.35-.94-.69-1.2-.34-.27-.79-.41-1.33-.41-.63,0-1.19.21-1.68.62-.5.42-.82.93-.98,1.54-.1.4-.15,1.13-.15,2.2v2.96h-1.04v-8.06Z"></path><path class="cls-1" d="M84.85,68.38c.21-.74.53-1.29.95-1.67.57-.51,1.26-.76,2.05-.76.48,0,.94.1,1.38.3.44.2.79.47,1.06.8.27.33.47.77.61,1.33h-6.04ZM90.01,71.7c-.27.24-.61.43-1,.58-.39.14-.79.22-1.2.22-.86,0-1.57-.3-2.16-.9-.58-.6-.88-1.38-.9-2.32h7.29c-.01-1.1-.31-2.01-.89-2.75-.82-1.04-1.92-1.56-3.3-1.56s-2.41.51-3.21,1.53c-.63.8-.94,1.71-.94,2.74,0,1.09.37,2.06,1.12,2.92.74.86,1.78,1.29,3.1,1.29.6,0,1.13-.09,1.6-.27.47-.18.9-.45,1.27-.79s.71-.81,1-1.38l-.87-.46c-.32.53-.61.92-.89,1.16"></path><rect class="cls-1" x="93.8" y="62.06" width="1.04" height="11.18"></rect><path class="cls-1" d="M96.84,65.17h1.04v3.77c0,.92.05,1.55.15,1.9.15.49.43.88.85,1.17s.92.43,1.5.43,1.07-.14,1.48-.42c.4-.28.68-.65.84-1.1.1-.31.16-.97.16-1.98v-3.77h1.04v3.96c0,1.11-.13,1.95-.39,2.51-.26.56-.65,1-1.17,1.32-.52.32-1.18.48-1.96.48s-1.44-.16-1.97-.48c-.53-.32-.92-.76-1.18-1.34-.26-.57-.39-1.43-.39-2.58v-3.88Z"></path><polygon class="cls-1" points="105.28 65.17 106.5 65.17 108.68 68.15 110.83 65.17 112.04 65.17 109.29 68.98 112.4 73.24 111.18 73.24 108.68 69.82 106.21 73.24 105 73.24 108.07 68.98 105.28 65.17"></polygon></svg> 