<?xml version="1.0" encoding="UTF-8"?> <svg xmlns="http://www.w3.org/2000/svg" id="Laag_1" viewBox="0 0 150 100"><defs><style>.cls-1{fill:#dfd0f3;fill-rule:evenodd;}</style></defs><path class="cls-1" d="M141.83,31.89h-1.87s0-13.74,0-13.74h-13.62s0-1.87,0-1.87h15.49s0,15.61,0,15.61h0ZM123.72,33.64c.87.12,1.75.12,2.62.25,0,10.74,0,21.49,0,32.23-1,.12-2,.12-2.87.25-1.87-7.87-3.62-15.86-5.5-24.11,0,5,0,9.87,0,14.86v9.62c-.87,0-1.75.12-2.62.12,0-11.24,0-22.48,0-33.85,1.12.12,2.37.12,3.5.25,1.62,8.24,3.25,16.36,4.87,24.23,0-4.5,0-8.87,0-13.24,0-3.5,0-7,0-10.62ZM101.48,67.99c-3.37.12-5-1.87-5-5.87,0-8.12,0-16.11,0-24.23,0-4,1.62-6,5-5.87,3.37.12,5,2.25,5,6.12,0,7.87,0,15.74,0,23.73.12,3.87-1.5,6-5,6.12ZM103.61,38.01c0-1.75-.62-2.75-2.12-2.75-1.37,0-2,.87-2,2.62,0,7.99,0,16.11,0,24.11,0,1.87.75,2.75,2,2.75,1.5,0,2.12-1,2.12-2.87,0-7.87,0-15.86,0-23.86ZM85.49,67.99c-.62-5.5-1.37-10.99-2.25-16.36h-.75c-.5,0-1.12,0-1.62,0,0,5.5,0,10.99,0,16.36h-3c0-12.12,0-24.11,0-36.22h4.87c3.75,0,5.62,1.87,5.62,6.62,0,2.37,0,4.75,0,7.12,0,2.62-.75,4.37-2.37,5.25,1,5.75,1.87,11.49,2.62,16.99-.87.25-2,.25-3.12.25ZM85.49,38.88c0-2.5-.5-3.62-2.62-3.62h-1.87c0,4.5,0,8.87,0,13.37h2c1.87,0,2.5-.87,2.5-3,0-2.25,0-4.5,0-6.75ZM66.38,68.11h-2.87c0-10.87,0-21.73,0-32.73h-3.62v-3.37c3.37-.12,6.75-.12,10.12-.12v3.37h-3.62c0,10.99,0,21.86,0,32.85ZM47.14,67.99c-3.5-.12-5-2.25-5-6v-7.37h2.87v7c0,1.75.5,3.12,2,3.12s2.12-.87,2.12-2.5v-5c0-2.12-.25-2.62-1-3.62-1.5-2.12-3.12-3.37-5-5.87-1-1.25-1-2.5-1-4.5,0-1.75,0-3.5,0-5.12,0-3.87,1.62-5.75,5-6,3.5-.12,4.87,1.75,4.87,5.62v6.5h-2.75v-6c0-1.75-.37-3-2-2.87-1.5,0-2.12.87-2.12,2.62s0,3.5,0,5.12c0,1.5.12,2,.75,2.75,1.5,2.12,3.25,3.5,4.87,5.75,1.12,1.5,1.37,2.75,1.37,5.62v5.12c0,3.62-1.5,5.75-5,5.62ZM28.66,66.86c-3.37-.25-5-2.37-5-5.87,0-7.37,0-14.61,0-21.98,0-3.5,1.62-5.62,5-5.87,3.37-.25,5,1.62,5,5.37,0,7.62,0,15.36,0,22.98,0,3.75-1.62,5.62-5,5.37ZM30.78,38.63c0-1.62-.62-2.5-2.12-2.37-1.37.12-2,1-2,2.62,0,7.49,0,14.86,0,22.36,0,1.75.75,2.62,2,2.75,1.5.12,2.12-.75,2.12-2.5,0-7.74,0-15.24,0-22.86ZM10.05,31.89h-1.87s0-15.61,0-15.61h15.49s0,1.87,0,1.87h-13.62v13.74ZM10.05,81.85h13.62s0,1.87,0,1.87h-15.49s0-15.61,0-15.61h1.87s0,13.74,0,13.74ZM139.95,68.11h1.87s0,15.61,0,15.61h-15.49s0-1.87,0-1.87h13.62v-13.74Z"></path></svg> 