<?xml version="1.0" encoding="UTF-8"?> <svg xmlns="http://www.w3.org/2000/svg" id="Laag_1" viewBox="0 0 150 100"><defs><style>.cls-1{fill:#dfd0f3;}</style></defs><path class="cls-1" d="M33.62,45.12c-2.32-2.03-5.33-3.26-8.67-3.26-7.25,0-13.13,5.88-13.13,13.13s5.84,13.13,13.09,13.13c3.34,0,6.35-1.23,8.67-3.26v2.76h4.46l.29-35.76h-4.71v13.27ZM24.91,64.16c-5.08,0-9.21-4.13-9.21-9.21s4.13-9.21,9.21-9.21,8.67,4.13,8.67,9.21-3.59,9.21-8.67,9.21Z"></path><circle class="cls-1" cx="6.78" cy="64.96" r="2.61"></circle><path class="cls-1" d="M137.42,46.1v-3.74h-3.95v25.24h3.95v-12.69c0-5.08,3.34-9.21,8.41-9.21v-3.92c-3.84,0-6.53,1.56-8.41,4.32Z"></path><path class="cls-1" d="M49.36,45.99v-3.63h-4.21v25.24h4.21v-12.69c0-5.08,3.34-9.21,8.41-9.21v-3.92c-3.77,0-6.49,1.52-8.41,4.21Z"></path><path class="cls-1" d="M84.36,54.15c-.04-.33-.04-.69-.11-1.02h0c-.33-2.32-1.2-4.53-2.65-6.42-.91-1.2-1.99-2.21-3.26-3.01s-2.68-1.38-4.21-1.67c-1.49-.29-3.05-.29-4.53.04-1.49.29-2.94.91-4.21,1.74-2.54,1.7-4.32,4.32-5.15,7.18-.18.69-.36,1.41-.44,2.14-.11.73-.15,1.49-.11,2.25,0,.47.07.98.11,1.45.15,1.02.4,1.99.76,2.94.54,1.41,1.31,2.68,2.28,3.84.98,1.12,2.1,2.1,3.41,2.87,1.31.76,2.76,1.27,4.24,1.52.76.11,1.52.15,2.25.15.76,0,1.49-.11,2.25-.25,2.94-.62,5.51-2.18,7.51-4.35l-2.9-2.68c-1.41,1.6-3.37,2.72-5.4,3.12-1.02.22-2.03.22-3.05.07-.98-.18-1.96-.54-2.83-1.09-1.78-1.05-3.16-2.76-3.84-4.68-.18-.47-.33-.98-.4-1.45h20.17c.07-.47.11-.94.11-1.45v-.76c0-.15,0-.33,0-.47ZM64.08,53.14c.07-.33.15-.65.22-.98.54-1.99,1.74-3.84,3.41-5.01.83-.58,1.74-.98,2.72-1.2s2.03-.22,3.01-.04c1.99.36,3.81,1.52,5.08,3.19.62.83,1.12,1.78,1.45,2.76.15.4.25.83.33,1.27h-16.21Z"></path><path class="cls-1" d="M104.27,55.82c-.69-.58-1.38-.98-2.07-1.27-1.38-.62-2.68-.94-3.92-1.31-.47-.15-.94-.25-1.41-.36-.73-.18-1.41-.4-2.07-.62-1.05-.36-1.89-.87-2.32-1.41-.22-.25-.36-.54-.44-.91-.04-.18-.07-.36-.07-.58s0-.4.04-.58c.04-.36.18-.69.4-.98s.47-.62.83-.87c.69-.51,1.67-.91,2.65-1.05,1.02-.18,2.07-.15,3.01.04.94.22,1.78.65,2.28,1.2.47.51.73,1.12.76,1.89l3.77-1.45c-.07-.29-.15-.58-.25-.87-.29-.83-.8-1.63-1.41-2.28-.62-.65-1.31-1.16-2.07-1.52-.73-.4-1.49-.65-2.25-.8-1.52-.33-3.05-.36-4.53-.07-1.49.25-2.97.8-4.32,1.78-.65.47-1.31,1.12-1.78,1.85-.47.76-.83,1.63-.98,2.54-.07.44-.11.91-.07,1.31,0,.44.07.87.15,1.31.18.87.62,1.78,1.2,2.5s1.27,1.27,1.96,1.67,1.38.69,2.03.94c1.2.44,2.32.73,3.41,1.02.15.04.25.07.4.11,1.2.33,2.36.65,3.3,1.05.47.22.87.44,1.16.69.29.25.47.51.62.76.11.29.18.62.18,1.05,0,.4-.07.73-.22,1.05-.29.62-.91,1.23-1.78,1.63-.83.44-1.89.69-2.94.76-1.05.11-2.14,0-3.12-.25-.98-.25-1.85-.69-2.43-1.27-.54-.54-.8-1.12-.83-1.89l-3.77,1.45c.07.36.18.73.33,1.05.18.44.4.83.65,1.2s.54.69.87,1.02c.62.62,1.31,1.09,2.03,1.45s1.45.62,2.18.8c1.49.36,2.94.47,4.42.36,1.49-.15,2.94-.47,4.35-1.2.69-.36,1.41-.8,2.03-1.38.62-.58,1.2-1.31,1.56-2.14.18-.44.33-.87.44-1.31.07-.44.15-.91.15-1.34,0-.83-.15-1.78-.51-2.65-.33-.76-.94-1.52-1.6-2.1Z"></path><path class="cls-1" d="M126.21,55.82c-.69-.58-1.38-.98-2.07-1.27-1.38-.62-2.68-.94-3.92-1.31-.47-.15-.94-.25-1.41-.36-.73-.18-1.41-.4-2.07-.62-1.05-.36-1.89-.87-2.32-1.41-.22-.25-.36-.54-.44-.91-.04-.18-.07-.36-.07-.58s0-.4.04-.58c.04-.36.18-.69.4-.98s.47-.62.83-.87c.69-.51,1.67-.91,2.65-1.05,1.02-.18,2.07-.15,3.01.04.94.22,1.78.65,2.28,1.2.47.51.73,1.12.76,1.89l3.77-1.45c-.07-.29-.15-.58-.25-.87-.29-.83-.8-1.63-1.41-2.28-.62-.65-1.31-1.16-2.07-1.52-.73-.4-1.49-.65-2.25-.8-1.52-.33-3.05-.36-4.53-.07-1.49.25-2.97.8-4.32,1.78-.65.47-1.31,1.12-1.78,1.85-.47.76-.83,1.63-.98,2.54-.07.44-.11.91-.07,1.31,0,.44.07.87.15,1.31.18.87.62,1.78,1.2,2.5.58.73,1.27,1.27,1.96,1.67s1.38.69,2.03.94c1.2.44,2.32.73,3.41,1.02.15.04.25.07.4.11,1.2.33,2.36.65,3.3,1.05.47.22.87.44,1.16.69.29.25.47.51.62.76.11.29.18.62.18,1.05,0,.4-.07.73-.22,1.05-.29.62-.91,1.23-1.78,1.63-.83.44-1.89.69-2.94.76-1.05.11-2.14,0-3.12-.25s-1.85-.69-2.43-1.27c-.54-.54-.8-1.12-.83-1.89l-3.77,1.45c.07.36.18.73.33,1.05.18.44.4.83.65,1.2.25.36.54.69.87,1.02.62.62,1.31,1.09,2.03,1.45s1.45.62,2.18.8c1.49.36,2.94.47,4.42.36,1.49-.15,2.94-.47,4.35-1.2.69-.36,1.41-.8,2.03-1.38.62-.58,1.2-1.31,1.56-2.14.18-.44.33-.87.44-1.31.07-.44.15-.91.15-1.34,0-.83-.15-1.78-.51-2.65-.33-.76-.94-1.52-1.6-2.1Z"></path></svg> 